<svg height="512" viewBox="0 0 64 64" width="512" xmlns="http://www.w3.org/2000/svg"><g id="Location"><path d="m9 23h46v30h-46z" fill="#d8d7da"/><path d="m61 57v4h-12s1.59-1.59 3.62-4z" fill="#a78966"/><path d="m61 19h-58l29-16z" fill="#ff7956"/><path d="m59 53v4h-6.38c.97-1.17 2.06-2.53 3.11-4z" fill="#9cdd05"/><path d="m59 19v4h-3-8-12-8-12-8-3v-4h10 4 4 4 10 4 4 4z" fill="#fee9ab"/><path d="m61 41c0 3.67-2.53 8.19-5.27 12-1.05 1.47-2.14 2.83-3.11 4-2.03 2.41-3.62 4-3.62 4s-1.59-1.59-3.62-4c-.97-1.17-2.06-2.53-3.11-4-2.74-3.81-5.27-8.33-5.27-12a12 12 0 1 1 24 0z" fill="#ffde55"/><path d="m56 23v4h-1-6-1v-4z" fill="#ff7956"/><path d="m55 27v3.6a11.925 11.925 0 0 0 -6-1.6v-2z" fill="#fee9ab"/><circle cx="49" cy="41" fill="#ff3051" r="8"/><path d="m49 61h-17v-4h13.38c2.03 2.41 3.62 4 3.62 4z" fill="#a78966"/><path d="m45.38 57h-23.38v-4h20.27c1.05 1.47 2.14 2.83 3.11 4z" fill="#9cdd05"/><path d="m36 49v4h-8v-4h1 6z" fill="#ff7956"/><path d="m36 23v4h-1-6-1v-4z" fill="#ff7956"/><path d="m29 27h6v22h-6z" fill="#fee9ab"/><circle cx="32" cy="12" fill="#b2fa09" r="3"/><path d="m32 57v4h-20v-4h10z" fill="#a78966"/><path d="m22 53v4h-10-7v-4h3 8z" fill="#9cdd05"/><path d="m16 49v4h-8v-4h1 6z" fill="#ff7956"/><path d="m16 23v4h-1-6-1v-4z" fill="#ff7956"/><path d="m9 27h6v22h-6z" fill="#fee9ab"/><path d="m12 57v4h-9v-4h2z" fill="#a78966"/><path d="m61 56h-1v-3a1 1 0 0 0 -1-1h-1.356c2.373-3.58 4.356-7.589 4.356-11a12.992 12.992 0 0 0 -6-10.937v-2.063a1 1 0 0 0 1-1v-3h2a1 1 0 0 0 1-1v-3h1a1 1 0 0 0 .483-1.875l-29-16a.994.994 0 0 0 -.966 0l-29 16a1 1 0 0 0 .483 1.875h1v3a1 1 0 0 0 1 1h2v3a1 1 0 0 0 1 1v20a1 1 0 0 0 -1 1v3h-2a1 1 0 0 0 -1 1v3h-1a1 1 0 0 0 -1 1v4a1 1 0 0 0 1 1h58a1 1 0 0 0 1-1v-4a1 1 0 0 0 -1-1zm-3-2v2h-3.273c.5-.634 1.013-1.3 1.522-2zm2-13c0 6.4-8.466 15.869-11 18.558-2.534-2.689-11-12.158-11-18.558a11 11 0 0 1 22 0zm-29 17v2h-18v-2zm-15-10v-20a1 1 0 0 0 1-1v-3h10v3a1 1 0 0 0 1 1v20a1 1 0 0 0 -1 1v3h-10v-3a1 1 0 0 0 -1-1zm13 4v-2h6v2zm1-4v-20h4v20zm5-22h-6v-2h6zm6.751 28c.509.7 1.02 1.366 1.522 2h-20.273v-2zm-8.751 4h11.915c.653.768 1.253 1.443 1.761 2h-13.676zm21-29a12.994 12.994 0 0 0 -18 12c0 3.411 1.983 7.42 4.356 11h-3.356v-3a1 1 0 0 0 -1-1v-20a1 1 0 0 0 1-1v-3h10v3a1 1 0 0 0 1 1h6zm1-3h-6v-2h6zm-23-21.858 25.117 13.858h-7.117v-2h-2v2h-2v-2h-2v2h-2v-2h-2v2h-2v-2h-2v2h-8v-2h-2v2h-2v-2h-2v2h-2v-2h-2v2h-2v-2h-2v2h-7.117zm-26 15.858h52v2h-52zm9 4v2h-6v-2zm-5 4h4v20h-4zm-1 22h6v2h-6zm-3 4h15v2h-15zm-2 4h7v2h-7zm56 2h-8.676c.508-.557 1.108-1.232 1.761-2h6.915z"/><path d="m32 16a4 4 0 1 0 -4-4 4 4 0 0 0 4 4zm0-6a2 2 0 1 1 -2 2 2 2 0 0 1 2-2z"/><path d="m40 41a9 9 0 1 0 9-9 9.011 9.011 0 0 0 -9 9zm16 0a7 7 0 1 1 -7-7 7.008 7.008 0 0 1 7 7z"/></g></svg>