<svg id="Capa_1" enable-background="new 0 0 512 512" height="512" viewBox="0 0 512 512" width="512" xmlns="http://www.w3.org/2000/svg"><g><path d="m189.398 123.838v-47.87c0-11.495 9.318-20.813 20.813-20.813h91.577c11.495 0 20.813 9.318 20.813 20.813v47.87z" fill="#818181"/><path d="m289.301 123.838h-66.602v-31.262c0-2.276 1.845-4.121 4.121-4.121h58.36c2.276 0 4.121 1.845 4.121 4.121z" fill="#9dc6fb"/><path d="m114.472 123.838h-70.765v-24.976c0-5.747 4.659-10.406 10.407-10.406h49.951c5.747 0 10.407 4.659 10.407 10.406z" fill="#818181"/><path d="m151.935 34.341h208.13v512h-208.13z" fill="#f9f6f9" transform="matrix(0 1 -1 0 546.342 34.341)"/><path d="m397.529 308.033c9.771 0 17.691-7.921 17.691-17.691s-7.921-17.691-17.691-17.691h-19.772v35.382z" fill="#454545"/><path d="m114.472 308.033c-9.771 0-17.691-7.921-17.691-17.691s7.921-17.691 17.691-17.691h19.772v35.382z" fill="#454545"/><path d="m0 186.277v-52.032c0-5.747 4.659-10.407 10.407-10.407h491.187c5.747 0 10.407 4.659 10.407 10.407v52.032z" fill="#eab14d"/><path d="m512 394.407v52.033c0 5.747-4.659 10.406-10.407 10.406h-491.186c-5.748 0-10.407-4.66-10.407-10.407v-52.033h512z" fill="#eab14d"/><path d="m487.025 186.277h24.976v208.13h-24.976z" fill="#dfdde2"/><path d="m501.594 123.838h-24.976c5.747 0 10.407 4.659 10.407 10.407v52.032h24.975v-52.032c0-5.748-4.659-10.407-10.406-10.407z" fill="#e49542"/><path d="m487.025 394.407v52.033c0 5.747-4.659 10.406-10.407 10.406h24.976c5.747 0 10.407-4.659 10.407-10.406v-52.033z" fill="#e49542"/><circle cx="256" cy="290.342" fill="#818181" r="123.837"/><path d="m336.538 196.276c18.557 21.653 29.771 49.784 29.771 80.538 0 68.393-55.444 123.837-123.837 123.837-30.753 0-58.884-11.215-80.538-29.771 22.712 26.503 56.426 43.3 94.066 43.3 68.394 0 123.837-55.444 123.837-123.837.001-37.642-16.797-71.355-43.299-94.067z" fill="#595959"/><circle cx="256" cy="290.342" fill="#454545" r="90.537"/><circle cx="256" cy="290.342" fill="#9dc6fb" r="41.626"/><path d="m275.901 253.791c3.234 5.916 5.075 12.697 5.075 19.901 0 22.953-18.673 41.626-41.626 41.626-7.204 0-13.985-1.841-19.901-5.075 7.07 12.933 20.802 21.725 36.551 21.725 22.953 0 41.626-18.673 41.626-41.626 0-15.749-8.792-29.482-21.725-36.551z" fill="#80b4fb"/><circle cx="447.48" cy="186.277" fill="#e28086" r="27.057"/></g></svg>