<?xml version="1.0" encoding="iso-8859-1"?>
<!-- Generator: Adobe Illustrator 19.0.0, SVG Export Plug-In . SVG Version: 6.00 Build 0)  -->
<svg version="1.1" id="Capa_1" xmlns="http://www.w3.org/2000/svg" xmlns:xlink="http://www.w3.org/1999/xlink" x="0px" y="0px"
	 viewBox="0 0 512 512" style="enable-background:new 0 0 512 512;" xml:space="preserve">
<path style="fill:#0789DE;" d="M256,7.5v497c137.243,0,248.5-111.257,248.5-248.5S393.243,7.5,256,7.5z"/>
<path style="fill:#2EA2EF;" d="M464.5,256C464.5,118.757,371.151,7.5,256,7.5C118.757,7.5,7.5,118.757,7.5,256
	S118.757,504.5,256,504.5C371.151,504.5,464.5,393.243,464.5,256z"/>
<polygon style="fill:#C6E8FF;" points="307.5,363 414.5,256 307.5,149 344.5,256 "/>
<polygon style="fill:#FFFFFF;" points="374.5,256 307.5,149 307.5,194 204.5,194 204.5,149 97.5,256 204.5,363 204.5,318 307.5,318 
	307.5,363 "/>
<path d="M437.02,74.98C388.668,26.629,324.38,0,256,0S123.333,26.629,74.98,74.98C26.629,123.332,0,187.62,0,256
	s26.629,132.668,74.98,181.02C123.333,485.371,187.62,512,256,512s132.668-26.629,181.02-74.98S512,324.38,512,256
	S485.371,123.332,437.02,74.98z M256,497C123.112,497,15,388.888,15,256S123.112,15,256,15s241,108.112,241,241S388.888,497,256,497
	z"/>
<path d="M312.804,143.696c-2.146-2.145-5.371-2.788-8.174-1.625c-2.803,1.16-4.63,3.896-4.63,6.929v37.5h-29
	c-4.143,0-7.5,3.357-7.5,7.5s3.357,7.5,7.5,7.5h36.5c4.143,0,7.5-3.357,7.5-7.5v-26.894L403.894,256L315,344.894V318
	c0-4.143-3.357-7.5-7.5-7.5h-103c-4.142,0-7.5,3.357-7.5,7.5v26.894L108.106,256L197,167.106V194c0,4.143,3.358,7.5,7.5,7.5H241
	c4.142,0,7.5-3.357,7.5-7.5s-3.358-7.5-7.5-7.5h-29V149c0-3.033-1.827-5.769-4.63-6.929c-2.801-1.161-6.028-0.519-8.173,1.625
	l-107,107c-2.929,2.93-2.929,7.678,0,10.607l107,107c2.146,2.146,5.372,2.788,8.173,1.625c2.803-1.16,4.63-3.896,4.63-6.929v-37.5
	h88V363c0,3.033,1.827,5.769,4.63,6.929c0.928,0.385,1.902,0.571,2.868,0.571c1.952,0,3.87-0.762,5.306-2.196l107-107
	c2.929-2.93,2.929-7.678,0-10.607L312.804,143.696z"/>
<g>
</g>
<g>
</g>
<g>
</g>
<g>
</g>
<g>
</g>
<g>
</g>
<g>
</g>
<g>
</g>
<g>
</g>
<g>
</g>
<g>
</g>
<g>
</g>
<g>
</g>
<g>
</g>
<g>
</g>
</svg>
