<?xml version="1.0" encoding="iso-8859-1"?>
<!-- Generator: Adobe Illustrator 19.0.0, SVG Export Plug-In . SVG Version: 6.00 Build 0)  -->
<svg version="1.1" id="Capa_1" xmlns="http://www.w3.org/2000/svg" xmlns:xlink="http://www.w3.org/1999/xlink" x="0px" y="0px"
	 viewBox="0 0 314.027 314.027" style="enable-background:new 0 0 314.027 314.027;" xml:space="preserve">
<g>
	<circle style="fill:#FFE600;" cx="157.013" cy="157.014" r="136.533"/>
	<path style="fill:#FFE600;" d="M157.013,300.374c-79.046,0-143.36-64.311-143.36-143.36s64.314-143.36,143.36-143.36
		s143.36,64.311,143.36,143.36S236.059,300.374,157.013,300.374z M157.013,27.307c-71.52,0-129.707,58.187-129.707,129.707
		s58.187,129.707,129.707,129.707S286.72,228.534,286.72,157.014S228.533,27.307,157.013,27.307z"/>
</g>
<path style="fill:#00E7FF;" d="M88.747,102.338c0-7.506,6.13-13.59,13.592-13.59h109.35c7.509,0,13.592,6.132,13.592,13.59v109.353
	c0,7.506-6.13,13.59-13.592,13.59h-109.35c-7.509,0-13.592-6.132-13.592-13.59V102.338z"/>
<path style="fill:#602F75;" d="M211.686,232.107H102.34c-11.261,0-20.42-9.16-20.42-20.417V102.338
	c0-11.257,9.16-20.417,20.42-20.417h109.346c11.261,0,20.42,9.16,20.42,20.417v109.353
	C232.107,222.948,222.947,232.107,211.686,232.107z M102.34,95.574c-3.734,0-6.767,3.033-6.767,6.764v109.353
	c0,3.731,3.033,6.764,6.767,6.764h109.346c3.734,0,6.767-3.033,6.767-6.764V102.338c0-3.731-3.033-6.764-6.767-6.764L102.34,95.574
	L102.34,95.574z"/>
<g>
	<path style="fill:#EA3457;" d="M13.585,23.473l56.798,56.479c2.683,2.669,6.984,2.618,9.605-0.116
		c2.621-2.734,2.567-7.115-0.116-9.784L23.347,13.838h23.689c3.748,0,6.793-3.098,6.793-6.919s-3.045-6.919-6.793-6.919H6.793
		C3.045,0.001,0,3.098,0,6.92v40.844c0,3.821,3.045,6.919,6.793,6.919c3.755,0,6.793-3.098,6.793-6.919V23.473z"/>
	<path style="fill:#EA3457;" d="M300.442,23.473l-56.798,56.479c-2.683,2.669-6.984,2.618-9.605-0.116
		c-2.621-2.734-2.567-7.115,0.116-9.784l56.525-56.211h-23.689c-3.748,0-6.793-3.098-6.793-6.919s3.045-6.919,6.793-6.919h40.243
		c3.748,0,6.793,3.098,6.793,6.919v40.844c0,3.821-3.045,6.919-6.793,6.919c-3.755,0-6.793-3.098-6.793-6.919L300.442,23.473
		L300.442,23.473z"/>
	<path style="fill:#EA3457;" d="M13.585,290.554l56.798-56.479c2.683-2.669,6.984-2.618,9.605,0.118
		c2.621,2.734,2.567,7.115-0.116,9.784l-56.525,56.211h23.689c3.748,0,6.793,3.098,6.793,6.919s-3.045,6.919-6.793,6.919H6.793
		c-3.748,0-6.793-3.098-6.793-6.919v-40.844c0-3.821,3.045-6.919,6.793-6.919c3.755,0,6.793,3.098,6.793,6.919V290.554z"/>
	<path style="fill:#EA3457;" d="M300.442,290.554l-56.798-56.479c-2.683-2.669-6.984-2.618-9.605,0.118
		c-2.621,2.734-2.567,7.115,0.116,9.784l56.525,56.211h-23.689c-3.748,0-6.793,3.098-6.793,6.919s3.045,6.919,6.793,6.919h40.243
		c3.748,0,6.793-3.098,6.793-6.919v-40.844c0-3.821-3.045-6.919-6.793-6.919c-3.755,0-6.793,3.098-6.793,6.919L300.442,290.554
		L300.442,290.554z"/>
</g>
<g>
</g>
<g>
</g>
<g>
</g>
<g>
</g>
<g>
</g>
<g>
</g>
<g>
</g>
<g>
</g>
<g>
</g>
<g>
</g>
<g>
</g>
<g>
</g>
<g>
</g>
<g>
</g>
<g>
</g>
</svg>
